<?xml version="1.0" encoding="UTF-8" standalone="no"?>
<svg width="700px" height="166px" viewBox="0 0 700 166" version="1.1" xmlns="http://www.w3.org/2000/svg" xmlns:xlink="http://www.w3.org/1999/xlink" xmlns:sketch="http://www.bohemiancoding.com/sketch/ns">
    <g id="Page-1" stroke="none" stroke-width="1" fill="none" fill-rule="evenodd" sketch:type="MSPage">
        <g id="cordwood-logo" sketch:type="MSArtboardGroup" stroke-linecap="round" stroke="#001F3F" stroke-linejoin="round">
            <g id="Cordwood-+-tree-back-+-tree" sketch:type="MSLayerGroup" transform="translate(10.000000, 14.000000)">
                <path d="M229.744614,40.9625422 C232.003477,39.2629313 228.474003,31.7563168 226.21514,27.9321925 C223.673919,23.8247996 218.732657,20.1423095 212.379604,20.0006753 C207.014805,19.859041 203.202974,22.9749942 201.367647,24.5329708 C198.967605,26.5158501 197.273458,30.1983402 195.72049,33.3142934 C191.485122,41.6707133 190.779227,50.3104017 190.496869,61.7827748 C190.496869,67.30651 189.932153,72.9718795 190.073332,78.2123462 C190.35569,85.1524238 190.638048,91.2426959 191.485122,96.7664311 C191.626301,97.7578708 191.626301,99.0325789 191.76748,99.8823843 C192.332195,102.148532 193.885164,105.264485 194.167522,106.255925 C195.296953,110.363318 198.40289,114.612345 200.238216,117.728298 C205.461837,123.393667 217.320867,128.350866 224.94453,121.835691 C227.909288,119.286275 231.438761,113.479271 232.285835,109.08861 C232.568193,107.672267 232.568193,105.972656 232.568193,104.556314 C232.568193,103.706509 232.991729,101.581995 231.438761,101.440361 C230.30933,103.42324 230.874045,105.547754 230.591687,107.530633 C230.168151,110.929855 227.768109,115.320516 225.791604,118.011566 C220.567983,125.376547 206.873626,122.402228 201.932363,116.595224 C199.108784,111.77966 194.591058,104.839583 193.461627,98.4660419 C192.896911,94.7835518 192.896911,90.3928905 192.614553,85.8605949 C192.473374,81.7532021 192.049837,77.2209066 192.049837,72.9718795 C192.049837,60.3664325 192.191016,44.7866665 196.849921,35.1555385 C198.40289,32.0395853 199.955858,28.6403636 201.650005,26.6574843 C204.191226,23.9664339 209.697205,21.5586518 213.932573,21.9835546 C220.003267,22.5500915 221.979772,25.241142 224.520993,28.9236321 C226.356319,31.7563168 227.344572,34.3057331 228.191645,37.4216863 C228.474003,38.5547602 228.474003,40.254371 229.744614,40.9625422 L229.744614,40.9625422 Z M280.004315,23.5415311 C276.898379,21.9835546 274.921874,19.859041 270.262969,20.2839437 C265.604064,20.7088464 261.509875,23.5415311 258.968654,26.3742159 C256.003896,29.4901691 254.450928,33.8808304 252.89796,38.4131259 C252.050886,40.9625422 250.780275,43.3703242 250.21556,45.4948377 C248.097876,53.9928919 247.956697,64.4738253 247.109623,74.9547588 C246.121371,87.8434742 248.239055,100.448921 251.909707,110.080049 C254.592107,117.161761 259.251012,124.81001 267.015853,125.943084 C273.933621,126.934523 280.145494,124.101839 283.251431,120.844251 C286.639726,117.303395 288.475052,110.646586 290.169199,103.706509 C291.863346,96.6247969 292.851599,89.8263535 293.133957,82.6030075 C293.275136,68.7228524 292.71042,55.8341369 290.169199,44.0784954 C289.886841,42.3788845 289.886841,40.254371 289.463304,38.6963944 C287.486799,32.464488 284.098505,28.6403636 280.004315,23.5415311 L280.004315,23.5415311 Z M260.945159,27.3656555 C262.921664,25.3827762 266.451138,23.1166284 270.545327,22.5500915 C275.627768,21.8419203 278.874884,25.0995077 281.416105,28.6403636 C283.674968,31.4730484 285.933831,34.7306358 287.204441,38.6963944 C287.627978,40.1127367 287.627978,41.8123476 288.051515,43.5119584 C288.898589,47.477717 290.02802,53.1430864 290.451557,58.1002847 C290.875094,63.3407514 290.592736,69.0061209 290.875094,74.8131245 C291.157452,80.3368597 291.016273,85.8605949 290.310378,90.9594274 C288.75741,101.723629 286.780904,112.204563 282.969073,117.728298 C280.004315,122.118959 273.933621,125.376547 266.451138,123.676936 C258.968654,122.118959 254.309749,112.204563 251.909707,104.41468 C250.21556,98.4660419 249.368486,91.5259644 249.227307,85.1524238 C248.944949,72.688611 249.933202,57.675382 252.474423,46.4862774 C254.027391,40.1127367 256.85097,31.3314141 260.945159,27.3656555 L260.945159,27.3656555 Z M333.793491,100.873824 C338.311217,107.247365 341.84069,113.054368 345.652521,119.427909 C346.499595,120.702617 349.181995,125.376547 350.029068,125.234913 C351.440858,124.81001 348.617279,120.844251 347.770205,119.569543 C344.805448,114.895613 342.405406,110.221684 339.299469,105.689388 C338.028859,103.848143 336.758248,101.723629 335.769996,100.307287 C342.546585,98.8909446 345.652521,92.517404 347.064311,87.1353031 C349.181995,78.9205174 349.605532,70.9890002 349.88789,60.9329694 C350.029068,57.675382 350.170247,54.1345261 350.029068,50.7353044 C349.88789,43.9368611 350.029068,35.8637097 347.629027,31.3314141 C345.087806,26.3742159 339.15829,22.6917257 333.369954,21.1337491 C327.581617,19.7174068 320.099134,20.425578 312.051934,20.1423095 C311.910755,22.6917257 311.769576,27.5072898 311.769576,30.9065114 C311.769576,39.1212971 311.628397,47.1944485 311.628397,53.9928919 C311.769576,75.3796615 312.051934,100.024019 312.475471,119.711177 C312.61665,121.835691 312.193113,124.385107 313.322545,125.659815 C315.016692,125.093278 314.310797,123.393667 314.169618,122.118959 C313.88726,115.037248 314.169618,106.964096 314.028439,101.015458 C320.805028,100.73219 329.981659,101.157092 333.793491,100.873824 L333.793491,100.873824 Z M338.593575,97.4746023 C333.793491,100.024019 322.357997,99.0325789 314.028439,99.0325789 C313.604903,92.9423067 313.88726,86.8520346 313.88726,80.7617624 C313.746082,77.6458093 313.746082,74.6714903 313.746082,71.6971714 C313.746082,64.6154596 313.604903,60.083164 313.88726,53.1430864 C314.028439,51.0185729 313.746082,46.0613747 313.746082,43.9368611 C313.88726,36.4302466 313.463724,29.2069006 314.169618,22.1251888 C322.216818,21.8419203 333.369954,22.1251888 339.15829,25.5244105 C341.84069,27.2240213 344.664269,29.6318033 345.934879,32.464488 C346.923132,34.5890015 347.346669,38.2714917 347.629027,41.6707133 C348.4761,50.452036 348.052563,60.083164 347.346669,69.4310236 C346.923132,75.3796615 346.358416,82.319739 345.087806,87.5602058 C344.240732,90.5345247 341.134795,96.0582599 338.593575,97.4746023 L338.593575,97.4746023 Z M368.805867,123.393667 C370.217657,125.659815 373.74713,124.81001 376.42953,124.951644 C379.253109,124.951644 382.217866,125.376547 385.041445,125.376547 C388.429739,125.376547 393.371002,125.659815 396.476939,124.951644 C397.465191,124.81001 398.594623,124.243473 399.582876,123.81857 C403.253528,121.977325 407.488896,119.569543 410.030117,117.020127 C412.712517,114.329076 413.841948,110.080049 414.830201,105.547754 C415.112559,103.848143 415.818453,102.148532 416.100811,100.448921 C417.794958,89.9679878 417.65378,77.7874435 417.65378,64.7570938 C417.512601,58.8084559 416.524348,52.4349153 416.24199,46.4862774 C415.959632,40.6792737 413.841948,35.0139043 411.724264,31.0481457 C410.877191,29.6318033 409.888938,28.3570952 408.759506,27.3656555 C406.92418,25.8076789 404.382959,23.6831654 402.406454,22.83336 C398.029907,20.8504807 392.523929,20.9921149 387.01795,20.7088464 C382.641403,20.425578 378.264856,20.0006753 374.170667,20.1423095 C372.758877,20.2839437 369.935299,20.1423095 368.947046,21.7002861 C369.652941,23.8247996 372.758877,22.1251888 374.876561,22.4084573 C373.605951,56.4006739 374.311846,90.3928905 374.029488,122.685496 C372.617698,123.393667 369.511762,121.552422 368.805867,123.393667 L368.805867,123.393667 Z M376.853067,22.9749942 C376.711888,22.6917257 376.711888,22.4084573 376.994246,22.4084573 C380.806077,22.1251888 384.900266,22.9749942 389.135634,22.9749942 C393.512181,22.9749942 398.029907,23.1166284 401.277023,24.2497023 C403.959423,25.241142 408.194791,28.7819979 409.747759,31.3314141 C411.018369,33.3142934 412.853696,37.9882232 413.418411,40.8209079 C414.265485,44.2201296 414.265485,48.044254 414.547843,52.0100126 C416.24199,71.5555371 415.959632,91.9508671 412.006622,110.363318 C410.030117,114.895613 407.065359,118.153201 401.982917,120.560983 C399.300518,121.835691 395.771044,123.252033 393.512181,123.393667 C390.829781,123.676936 387.865024,123.110399 384.759087,123.110399 C382.076687,123.110399 379.253109,123.393667 376.570709,122.685496 C375.723635,90.3928905 376.005993,56.1174054 376.853067,22.9749942 L376.853067,22.9749942 Z M436.571757,20.9921149 C436.289399,21.1337491 436.14822,20.8504807 436.14822,21.2753834 C436.571757,25.6660447 436.995294,29.6318033 437.277652,34.4473673 C438.124725,48.044254 439.677694,61.0746037 441.089483,74.9547588 C442.360094,89.4014508 444.760136,106.539193 447.160177,119.994446 C447.583714,122.260594 447.866072,125.376547 448.995504,125.518181 C449.842577,125.659815 451.113188,123.81857 451.254367,123.676936 C451.536725,122.685496 451.254367,121.269154 451.395546,120.277714 C452.524977,114.045808 454.78384,107.672267 456.901524,101.581995 C459.160387,95.3500887 460.007461,88.5516454 462.972218,83.1695445 C465.654618,96.0582599 469.607629,110.080049 473.560639,121.835691 C474.125355,123.393667 474.407712,126.084718 477.090112,124.951644 C477.937186,117.020127 479.207796,108.805341 480.478407,100.73219 C481.607838,92.517404 482.031375,84.3026183 483.301985,76.0878327 C484.996133,63.9072884 486.549101,51.8683783 488.525606,40.1127367 C489.231501,36.2886124 490.219753,32.464488 490.784469,28.6403636 C491.208006,26.2325816 492.196258,21.5586518 489.655038,20.8504807 C488.525606,22.5500915 489.090322,24.674605 488.807964,26.6574843 C488.666785,28.6403636 488.102069,30.6232429 487.678533,32.6061222 C482.313733,60.5080667 479.913691,91.6675986 475.254786,120.277714 C471.442955,110.504952 469.184092,98.6076762 466.219334,87.70184 C465.654618,85.294058 464.525187,77.3625408 462.548682,77.504175 C461.278071,77.504175 460.854534,80.7617624 460.430998,82.0364706 C456.901524,94.6419176 452.524977,106.822462 449.277862,119.003006 C446.736641,104.697948 444.618957,89.1181824 443.207167,73.2551479 C441.795378,57.9586505 439.536515,42.9454215 438.83062,27.5072898 C438.689441,24.5329708 439.112978,20.1423095 436.571757,20.9921149 L436.571757,20.9921149 Z M540.761813,23.5415311 C537.655876,21.9835546 535.679371,19.859041 531.020466,20.2839437 C526.361561,20.7088464 522.267372,23.5415311 519.726151,26.3742159 C516.761394,29.4901691 515.208425,33.8808304 513.655457,38.4131259 C512.808383,40.9625422 511.537773,43.3703242 510.973057,45.4948377 C508.855373,53.9928919 508.714194,64.4738253 507.867121,74.9547588 C506.878868,87.8434742 508.996552,100.448921 512.667204,110.080049 C515.349604,117.161761 520.008509,124.81001 527.773351,125.943084 C534.691119,126.934523 540.902992,124.101839 544.008929,120.844251 C547.397223,117.303395 549.232549,110.646586 550.926696,103.706509 C552.620844,96.6247969 553.609096,89.8263535 553.891454,82.6030075 C554.032633,68.7228524 553.467917,55.8341369 550.926696,44.0784954 C550.644339,42.3788845 550.644339,40.254371 550.220802,38.6963944 C548.244297,32.464488 544.856002,28.6403636 540.761813,23.5415311 L540.761813,23.5415311 Z M521.702656,27.3656555 C523.679162,25.3827762 527.208635,23.1166284 531.302824,22.5500915 C536.385266,21.8419203 539.632381,25.0995077 542.173602,28.6403636 C544.432465,31.4730484 546.691328,34.7306358 547.961939,38.6963944 C548.385476,40.1127367 548.385476,41.8123476 548.809012,43.5119584 C549.656086,47.477717 550.785518,53.1430864 551.209054,58.1002847 C551.632591,63.3407514 551.350233,69.0061209 551.632591,74.8131245 C551.914949,80.3368597 551.77377,85.8605949 551.067875,90.9594274 C549.514907,101.723629 547.538402,112.204563 543.726571,117.728298 C540.761813,122.118959 534.691119,125.376547 527.208635,123.676936 C519.726151,122.118959 515.067246,112.204563 512.667204,104.41468 C510.973057,98.4660419 510.125984,91.5259644 509.984805,85.1524238 C509.702447,72.688611 510.690699,57.675382 513.23192,46.4862774 C514.784888,40.1127367 517.608467,31.3314141 521.702656,27.3656555 L521.702656,27.3656555 Z M601.327577,23.5415311 C598.221641,21.9835546 596.245135,19.859041 591.58623,20.2839437 C586.927326,20.7088464 582.833136,23.5415311 580.291915,26.3742159 C577.327158,29.4901691 575.774189,33.8808304 574.221221,38.4131259 C573.374148,40.9625422 572.103537,43.3703242 571.538821,45.4948377 C569.421137,53.9928919 569.279958,64.4738253 568.432885,74.9547588 C567.444632,87.8434742 569.562316,100.448921 573.232969,110.080049 C575.915368,117.161761 580.574273,124.81001 588.339115,125.943084 C595.256883,126.934523 601.468756,124.101839 604.574693,120.844251 C607.962987,117.303395 609.798313,110.646586 611.492461,103.706509 C613.186608,96.6247969 614.17486,89.8263535 614.457218,82.6030075 C614.598397,68.7228524 614.033682,55.8341369 611.492461,44.0784954 C611.210103,42.3788845 611.210103,40.254371 610.786566,38.6963944 C608.810061,32.464488 605.421766,28.6403636 601.327577,23.5415311 L601.327577,23.5415311 Z M582.268421,27.3656555 C584.244926,25.3827762 587.774399,23.1166284 591.868588,22.5500915 C596.95103,21.8419203 600.198146,25.0995077 602.739367,28.6403636 C604.99823,31.4730484 607.257093,34.7306358 608.527703,38.6963944 C608.95124,40.1127367 608.95124,41.8123476 609.374777,43.5119584 C610.22185,47.477717 611.351282,53.1430864 611.774819,58.1002847 C612.198355,63.3407514 611.915997,69.0061209 612.198355,74.8131245 C612.480713,80.3368597 612.339534,85.8605949 611.63364,90.9594274 C610.080671,101.723629 608.104166,112.204563 604.292335,117.728298 C601.327577,122.118959 595.256883,125.376547 587.774399,123.676936 C580.291915,122.118959 575.633011,112.204563 573.232969,104.41468 C571.538821,98.4660419 570.691748,91.5259644 570.550569,85.1524238 C570.268211,72.688611 571.256463,57.675382 573.797684,46.4862774 C575.350653,40.1127367 578.174231,31.3314141 582.268421,27.3656555 L582.268421,27.3656555 Z M630.833975,123.393667 C632.245764,125.659815 635.775238,124.81001 638.457638,124.951644 C641.281216,124.951644 644.245974,125.376547 647.069553,125.376547 C650.457847,125.376547 655.39911,125.659815 658.505047,124.951644 C659.493299,124.81001 660.622731,124.243473 661.610983,123.81857 C665.281636,121.977325 669.517004,119.569543 672.058225,117.020127 C674.740625,114.329076 675.870056,110.080049 676.858309,105.547754 C677.140667,103.848143 677.846561,102.148532 678.128919,100.448921 C679.823066,89.9679878 679.681887,77.7874435 679.681887,64.7570938 C679.540709,58.8084559 678.552456,52.4349153 678.270098,46.4862774 C677.98774,40.6792737 675.870056,35.0139043 673.752372,31.0481457 C672.905298,29.6318033 671.917046,28.3570952 670.787614,27.3656555 C668.952288,25.8076789 666.411067,23.6831654 664.434562,22.83336 C660.058015,20.8504807 654.552037,20.9921149 649.046058,20.7088464 C644.669511,20.425578 640.292964,20.0006753 636.198775,20.1423095 C634.786985,20.2839437 631.963407,20.1423095 630.975154,21.7002861 C631.681049,23.8247996 634.786985,22.1251888 636.904669,22.4084573 C635.634059,56.4006739 636.339954,90.3928905 636.057596,122.685496 C634.645806,123.393667 631.53987,121.552422 630.833975,123.393667 L630.833975,123.393667 Z M638.881175,22.9749942 C638.739996,22.6917257 638.739996,22.4084573 639.022353,22.4084573 C642.834185,22.1251888 646.928374,22.9749942 651.163742,22.9749942 C655.540289,22.9749942 660.058015,23.1166284 663.305131,24.2497023 C665.987531,25.241142 670.222899,28.7819979 671.775867,31.3314141 C673.046477,33.3142934 674.881804,37.9882232 675.446519,40.8209079 C676.293593,44.2201296 676.293593,48.044254 676.575951,52.0100126 C678.270098,71.5555371 677.98774,91.9508671 674.03473,110.363318 C672.058225,114.895613 669.093467,118.153201 664.011025,120.560983 C661.328626,121.835691 657.799152,123.252033 655.540289,123.393667 C652.857889,123.676936 649.893132,123.110399 646.787195,123.110399 C644.104795,123.110399 641.281216,123.393667 638.598817,122.685496 C637.751743,90.3928905 638.034101,56.1174054 638.881175,22.9749942 L638.881175,22.9749942 Z" id="Cordwood" stroke-width="10" sketch:type="MSShapeGroup"></path>
                <g id="tree-back-+-tree" stroke-width="12" sketch:type="MSShapeGroup">
                    <g>
                        <path d="M94.9452168,58.653914 C105.198999,47.3880135 111.113554,37.2283983 111.113554,37.2283983 L92.0537989,37.2283983 C111.382001,21.9863367 122.119891,0 122.119891,0 C122.119891,0 132.857781,21.9863367 152.185983,37.2283983 L133.126228,37.2283983 C133.126228,37.2283983 144.66946,57.056567 163.460768,72.0288577 L144.132566,72.0288577 C144.132566,72.0288577 146.174801,75.681042 149.973031,81.1974356 C155.134476,88.6937081 163.538598,99.6324883 174.467105,109.527027 L133.93157,109.527027 L133.93157,127.533702" id="tree-back"></path>
                        <path d="M37.314168,119.351565 L0,119.351565 C18.9706304,102.175785 30.3345394,81.8533954 30.3345394,81.8533954 L11.0063373,81.8533954 C29.7976449,66.8811048 41.3408768,47.0529361 41.3408768,47.0529361 L22.2811219,47.0529361 C41.609324,31.8108745 52.3472141,9.82453777 52.3472141,9.82453777 C52.3472141,9.82453777 63.0851042,31.8108745 82.4133063,47.0529361 L63.3535514,47.0529361 C63.3535514,47.0529361 74.8967832,66.8811048 93.6880909,81.8533954 L74.3598887,81.8533954 C74.3598887,81.8533954 85.7237978,102.175785 104.694428,119.351565 L64.1588932,119.351565 L64.1588932,137.35824" id="tree" fill="#FFFFFF"></path>
                    </g>
                </g>
            </g>
        </g>
    </g>
</svg>
